<?xml version="1.0" encoding="UTF-8"?>
<svg width="512" height="512" viewBox="0 0 512 512" fill="none" xmlns="http://www.w3.org/2000/svg">
  <!-- Background Gradient -->
  <defs>
    <linearGradient id="bgGradient" x1="0%" y1="0%" x2="100%" y2="100%">
      <stop offset="0%" stop-color="#4F46E5" />
      <stop offset="100%" stop-color="#7C3AED" />
    </linearGradient>
    <filter id="shadow" x="-10%" y="-10%" width="120%" height="120%">
      <feDropShadow dx="0" dy="4" stdDeviation="10" flood-opacity="0.3"/>
    </filter>
  </defs>
  
  <!-- Main Background -->
  <rect width="512" height="512" rx="128" fill="url(#bgGradient)" />
  
  <!-- Document Shape -->
  <path d="M346 128H166C153.85 128 144 137.85 144 150V362C144 374.15 153.85 384 166 384H346C358.15 384 368 374.15 368 362V150C368 137.85 358.15 128 346 128Z" fill="white" filter="url(#shadow)"/>
  
  <!-- Document Fold -->
  <path d="M346 128H302L368 194V150C368 137.85 358.15 128 346 128Z" fill="#E2E8F0"/>
  <path d="M302 128V170C302 182.15 311.85 192 324 192H368L302 128Z" fill="#CBD5E1"/>
  
  <!-- Document Lines -->
  <rect x="176" y="224" width="160" height="10" rx="5" fill="#4F46E5" opacity="0.7"/>
  <rect x="176" y="256" width="120" height="10" rx="5" fill="#4F46E5" opacity="0.7"/>
  <rect x="176" y="288" width="160" height="10" rx="5" fill="#4F46E5" opacity="0.7"/>
  <rect x="176" y="320" width="90" height="10" rx="5" fill="#4F46E5" opacity="0.7"/>
  
  <!-- Brain Network -->
  <circle cx="256" cy="170" r="25" fill="#7C3AED" opacity="0.9"/>
  <circle cx="210" cy="170" r="15" fill="#4F46E5" opacity="0.8"/>
  <circle cx="302" cy="170" r="15" fill="#4F46E5" opacity="0.8"/>
  <circle cx="226" cy="130" r="12" fill="#4F46E5" opacity="0.7"/>
  <circle cx="286" cy="130" r="12" fill="#4F46E5" opacity="0.7"/>
  
  <!-- Connection Lines -->
  <line x1="235" y1="170" x2="256" y2="170" stroke="#4F46E5" stroke-width="3"/>
  <line x1="256" y1="170" x2="287" y2="170" stroke="#4F46E5" stroke-width="3"/>
  <line x1="226" y1="142" x2="246" y2="160" stroke="#4F46E5" stroke-width="3"/>
  <line x1="266" y1="160" x2="286" y2="142" stroke="#4F46E5" stroke-width="3"/>
</svg> 